<mxfile host="app.diagrams.net" modified="2024-03-08T21:03:00.836Z" agent="Mozilla/5.0 (Windows NT 10.0; Win64; x64) AppleWebKit/537.36 (KHTML, like Gecko) Chrome/122.0.0.0 Safari/537.36 Edg/122.0.0.0" etag="JMVNPTBdyg52DkU4QdZM" version="23.1.7" type="device">
  <diagram name="Página-1" id="EoKOdPE1UacYlBc2Si0I">
    <mxGraphModel dx="2069" dy="569" grid="1" gridSize="10" guides="1" tooltips="1" connect="1" arrows="1" fold="1" page="1" pageScale="1" pageWidth="827" pageHeight="1169" math="0" shadow="0">
      <root>
        <mxCell id="0" />
        <mxCell id="1" parent="0" />
        <mxCell id="BZ9fip9R51fyq_v2XK1B-3" value="" style="edgeStyle=orthogonalEdgeStyle;rounded=0;orthogonalLoop=1;jettySize=auto;html=1;" edge="1" parent="1" source="BZ9fip9R51fyq_v2XK1B-1" target="BZ9fip9R51fyq_v2XK1B-2">
          <mxGeometry relative="1" as="geometry" />
        </mxCell>
        <mxCell id="BZ9fip9R51fyq_v2XK1B-1" value="INICIO" style="ellipse;whiteSpace=wrap;html=1;" vertex="1" parent="1">
          <mxGeometry x="10" y="10" width="120" height="80" as="geometry" />
        </mxCell>
        <mxCell id="BZ9fip9R51fyq_v2XK1B-5" value="" style="edgeStyle=orthogonalEdgeStyle;rounded=0;orthogonalLoop=1;jettySize=auto;html=1;" edge="1" parent="1" source="BZ9fip9R51fyq_v2XK1B-2" target="BZ9fip9R51fyq_v2XK1B-4">
          <mxGeometry relative="1" as="geometry" />
        </mxCell>
        <mxCell id="BZ9fip9R51fyq_v2XK1B-2" value="Ingresar numero" style="whiteSpace=wrap;html=1;" vertex="1" parent="1">
          <mxGeometry x="210" y="20" width="120" height="60" as="geometry" />
        </mxCell>
        <mxCell id="BZ9fip9R51fyq_v2XK1B-7" value="" style="edgeStyle=orthogonalEdgeStyle;rounded=0;orthogonalLoop=1;jettySize=auto;html=1;" edge="1" parent="1" source="BZ9fip9R51fyq_v2XK1B-4" target="BZ9fip9R51fyq_v2XK1B-6">
          <mxGeometry relative="1" as="geometry" />
        </mxCell>
        <mxCell id="BZ9fip9R51fyq_v2XK1B-9" value="" style="edgeStyle=orthogonalEdgeStyle;rounded=0;orthogonalLoop=1;jettySize=auto;html=1;" edge="1" parent="1" source="BZ9fip9R51fyq_v2XK1B-4" target="BZ9fip9R51fyq_v2XK1B-8">
          <mxGeometry relative="1" as="geometry" />
        </mxCell>
        <mxCell id="BZ9fip9R51fyq_v2XK1B-4" value="¿NUMERO ES PAR?" style="rhombus;whiteSpace=wrap;html=1;" vertex="1" parent="1">
          <mxGeometry x="205" y="200" width="130" height="120" as="geometry" />
        </mxCell>
        <mxCell id="BZ9fip9R51fyq_v2XK1B-11" value="" style="edgeStyle=orthogonalEdgeStyle;rounded=0;orthogonalLoop=1;jettySize=auto;html=1;" edge="1" parent="1" source="BZ9fip9R51fyq_v2XK1B-6" target="BZ9fip9R51fyq_v2XK1B-10">
          <mxGeometry relative="1" as="geometry" />
        </mxCell>
        <mxCell id="BZ9fip9R51fyq_v2XK1B-6" value="SI" style="whiteSpace=wrap;html=1;" vertex="1" parent="1">
          <mxGeometry x="-150" y="230" width="120" height="60" as="geometry" />
        </mxCell>
        <mxCell id="BZ9fip9R51fyq_v2XK1B-13" value="" style="edgeStyle=orthogonalEdgeStyle;rounded=0;orthogonalLoop=1;jettySize=auto;html=1;" edge="1" parent="1" source="BZ9fip9R51fyq_v2XK1B-8" target="BZ9fip9R51fyq_v2XK1B-12">
          <mxGeometry relative="1" as="geometry" />
        </mxCell>
        <mxCell id="BZ9fip9R51fyq_v2XK1B-8" value="NO" style="whiteSpace=wrap;html=1;" vertex="1" parent="1">
          <mxGeometry x="540" y="230" width="120" height="60" as="geometry" />
        </mxCell>
        <mxCell id="BZ9fip9R51fyq_v2XK1B-16" value="" style="edgeStyle=orthogonalEdgeStyle;rounded=0;orthogonalLoop=1;jettySize=auto;html=1;" edge="1" parent="1" source="BZ9fip9R51fyq_v2XK1B-10" target="BZ9fip9R51fyq_v2XK1B-15">
          <mxGeometry relative="1" as="geometry" />
        </mxCell>
        <mxCell id="BZ9fip9R51fyq_v2XK1B-10" value="MOSTRAR: El numero ingresado es par" style="whiteSpace=wrap;html=1;" vertex="1" parent="1">
          <mxGeometry x="-150" y="410" width="120" height="60" as="geometry" />
        </mxCell>
        <mxCell id="BZ9fip9R51fyq_v2XK1B-20" value="" style="edgeStyle=orthogonalEdgeStyle;rounded=0;orthogonalLoop=1;jettySize=auto;html=1;entryX=1;entryY=0.5;entryDx=0;entryDy=0;" edge="1" parent="1" source="BZ9fip9R51fyq_v2XK1B-12" target="BZ9fip9R51fyq_v2XK1B-15">
          <mxGeometry relative="1" as="geometry">
            <mxPoint x="440" y="440" as="targetPoint" />
          </mxGeometry>
        </mxCell>
        <mxCell id="BZ9fip9R51fyq_v2XK1B-12" value="MOSTRAR: El numero ingresar es impar" style="whiteSpace=wrap;html=1;" vertex="1" parent="1">
          <mxGeometry x="540" y="410" width="120" height="60" as="geometry" />
        </mxCell>
        <mxCell id="BZ9fip9R51fyq_v2XK1B-15" value="FIN" style="ellipse;whiteSpace=wrap;html=1;" vertex="1" parent="1">
          <mxGeometry x="230" y="400" width="80" height="80" as="geometry" />
        </mxCell>
      </root>
    </mxGraphModel>
  </diagram>
</mxfile>
